<?xml version="1.0" encoding="UTF-8" standalone="no"?>
<svg
   xmlns:dc="http://purl.org/dc/elements/1.1/"
   xmlns:cc="http://creativecommons.org/ns#"
   xmlns:rdf="http://www.w3.org/1999/02/22-rdf-syntax-ns#"
   xmlns:svg="http://www.w3.org/2000/svg"
   xmlns="http://www.w3.org/2000/svg"
   id="svg14"
   viewBox="0 0 398.59189 257.49741"
   height="257.49741"
   width="398.59189"
   version="1.1">
  <metadata
     id="metadata20">
    <rdf:RDF>
      <cc:Work
         rdf:about="">
        <dc:format>image/svg+xml</dc:format>
        <dc:type
           rdf:resource="http://purl.org/dc/dcmitype/StillImage" />
        <dc:title></dc:title>
      </cc:Work>
    </rdf:RDF>
  </metadata>
  <defs
     id="defs18" />
  <g
     transform="translate(-394.3356,-418.16464)"
     style="display:none"
     id="layer1">
    <rect
       y="299.65164"
       x="347.39975"
       height="488.68671"
       width="488.68671"
       id="rect827"
       style="opacity:1;fill:#111111;fill-opacity:1;stroke:none;stroke-width:2.84082723;stroke-miterlimit:4;stroke-dasharray:none;stroke-opacity:1" />
  </g>
  <g
     id="g12"
     transform="matrix(7.3379865,0,0,7.3379865,-1174.0778,-1.4675975e-6)">
    <defs
       id="SvgjsDefs3103" />
    <g
       style="stroke:#f76b8a;stroke-opacity:1"
       transform="translate(186.61079,16.793415)"
       id="g2733">
      <path
         d="M 2.8636832,0.91070011 3.0478595,0.86761798 3.4526163,0.93098927 4.0677314,1.3117526 4.0698502,1.4232723 3.4696443,1.8271275 3.0675871,1.9058307 2.881909,1.869773 2.7443879,2.3221077 2.9187135,2.3954988 3.2089198,2.6846775 3.4827502,3.3542765 3.4189167,3.4457474 2.6959509,3.4196777 2.3244241,3.2470355 2.1954024,3.1087113 1.8182712,3.3938281 1.9161633,3.5556674 1.98097,3.9601988 1.8089188,4.6628751 1.7035126,4.6993535 1.1339459,4.2533142 0.93485774,3.8952622 0.91177679,3.7075263 0.43908196,3.7165079 0.42314979,3.9049845 0.23780744,4.2703417 -0.31440331,4.737697 -0.42111939,4.705247 -0.61974077,4.0096148 -0.57034827,3.6029138 -0.47867507,3.4374716 -0.86636554,3.1668884 -0.99003791,3.3100162 -1.3547383,3.4966475 -2.0761919,3.5501635 -2.1434539,3.4611855 -1.8952588,2.7816675 -1.616248,2.4816722 -1.4448345,2.4017162 -1.5994414,1.954933 -1.7836177,1.998015 -2.1883745,1.934644 -2.8034896,1.5538806 -2.8056096,1.4423609 -2.2054037,1.0385057 -1.8033466,0.9598026 -1.6176685,0.9958603 -1.4801473,0.5435256 -1.654473,0.4701344 -1.9446792,0.18095575 l -0.2738305,-0.66959902 0.063834,-0.0914709 0.7229658,0.0260698 0.3715271,0.17264313 0.12902102,0.13832337 0.3771315,-0.28511589 -0.0978925,-0.16184017 -0.0648068,-0.40453127 0.17205152,-0.7026754 0.10540596,-0.036479 0.56956691,0.4460402 0.19908856,0.3580519 0.0230809,0.18773475 0.47269483,-0.008982 0.0159318,-0.18847655 0.1853424,-0.3653571 0.5522107,-0.4673554 0.1067161,0.03245 0.1986214,0.6956321 -0.049392,0.40670195 -0.091674,0.16544132 0.3876904,0.27058317 0.1236724,-0.14312782 0.3647005,-0.18663134 0.7214535,-0.0535158 0.067263,0.0889788 -0.2481954,0.67951703 -0.2790108,0.2999953 -0.1714136,0.079956 z"
         style="fill:none;stroke:#f76b8a;stroke-width:1;stroke-opacity:1"
         id="path2731" />
    </g>
    <g
       style="fill:#f76b8a"
       transform="matrix(0.48069888,0,0,0.48069888,156.00982,-13.219219)"
       featureKey="inlineSymbolFeature-0"
       id="SvgjsG3105">
      <path
         id="path6"
         d="m 34.800781,27.5 c -6.3,0 -11.5,5.2 -11.5,11.5 v 3.5 H 9.8007812 c -0.8,0 -1.5,0.7 -1.5,1.5 0,0.8 0.7,1.5 1.5,1.5 H 23.300781 v 7 H 9.8007812 c -0.8,0 -1.5,0.7 -1.5,1.5 0,0.8 0.7,1.5 1.5,1.5 H 23.300781 v 7 H 9.8007812 c -0.8,0 -1.5,0.7 -1.5,1.5 0,0.8 0.7,1.5 1.5,1.5 H 23.300781 v 7 H 9.8007812 c -0.8,0 -1.5,0.7 -1.5,1.5 0,0.8 0.7,1.5 1.5,1.5 H 23.300781 v 7 H 9.8007812 c -0.8,0 -1.5,0.7 -1.5,1.5 0,0.8 0.7,1.5 1.5,1.5 H 23.300781 V 89 c 0,6.3 5.2,11.5 11.5,11.5 h 58.398438 c 6.3,0 11.500001,-5.2 11.500001,-11.5 v -3.5 h 0.10156 15 c 0.8,0 1.5,-0.7 1.5,-1.5 0,-0.8 -0.7,-1.5 -1.5,-1.5 h -15 -0.10156 v -7 h 0.10156 15 c 0.8,0 1.5,-0.7 1.5,-1.5 0,-0.8 -0.7,-1.5 -1.5,-1.5 h -15 -0.10156 v -7 h 0.10156 15 c 0.8,0 1.5,-0.7 1.5,-1.5 0,-0.8 -0.7,-1.5 -1.5,-1.5 h -15 -0.10156 v -7 h 0.10156 15 c 0.8,0 1.5,-0.7 1.5,-1.5 0,-0.8 -0.7,-1.5 -1.5,-1.5 h -15 -0.10156 v -7 h 0.10156 15 c 0.8,0 1.5,-0.7 1.5,-1.5 0,-0.8 -0.7,-1.5 -1.5,-1.5 h -15 -0.10156 V 39 c 0,-6.3 -5.200001,-11.5 -11.500001,-11.5 z m 0,3 h 58.398438 c 4.7,0 8.500001,3.8 8.500001,8.5 v 50 c 0,4.7 -3.800001,8.5 -8.500001,8.5 H 34.800781 c -4.7,0 -8.5,-3.8 -8.5,-8.5 V 39 c 0,-4.7 3.8,-8.5 8.5,-8.5 z M 90.59893,49.125071 c 0,-3.6 -2.9,-6.5 -6.5,-6.5 -3.1,0 -5.600781,2.2 -6.300781,5 l -35.262677,0.02548 c -0.8,5.78e-4 -1.496649,0.700006 -1.5,1.5 l -0.100708,24.043116 c -3.057509,0.715292 -5.263045,3.576711 -5.039548,6.768896 0.251435,3.591209 3.346897,6.281583 6.938106,6.030149 3.591209,-0.251435 6.281583,-3.346897 6.030149,-6.938106 -0.202545,-2.892918 -2.26561,-5.155525 -4.922119,-5.871736 l 0.09412,-22.532319 33.762677,-0.02548 c 0.7,2.9 3.300781,5 6.300781,5 3.6,0 6.5,-2.9 6.5,-6.5 z m -0.37514,27.461167 c -1.241394,-3.379192 -4.963533,-5.101308 -8.342726,-3.859915 -0.750932,0.275866 -1.373318,0.609381 -1.926935,1.13236 l -8.849874,-6.114737 c 0.578116,-1.521768 0.674362,-3.174593 0.0086,-4.846931 -1.331601,-3.344673 -5.0986,-4.966315 -8.443273,-3.634713 -3.344673,1.331601 -4.966314,5.0986 -3.634713,8.443271 1.331601,3.344674 5.0986,4.966316 8.443271,3.634716 0.743262,-0.295913 1.355757,-0.647816 1.895143,-1.185461 l 8.786493,6.069263 c -0.618733,1.505713 -0.759284,3.155361 -0.138588,4.844957 1.241394,3.379193 4.963533,5.101309 8.342726,3.859915 3.379192,-1.241393 5.101308,-4.963532 3.859915,-8.342725 z M 87.59893,49.125071 c 0,1.9 -1.6,3.5 -3.5,3.5 -1.177847,0 -2.240403,-0.61488 -2.877965,-1.534934 -0.390897,-0.564098 -0.622035,-1.242913 -0.622035,-1.965066 0,-1.9 1.6,-3.5 3.5,-3.5 1.9,0 3.5,1.6 3.5,3.5 z m -0.191135,28.495662 c 0.65518,1.783463 -0.294953,3.837057 -2.078415,4.492236 -1.783463,0.65518 -3.802573,-0.201086 -4.492237,-2.078415 -0.689663,-1.877329 0.294954,-3.837057 2.078416,-4.492237 1.783463,-0.65518 3.837057,0.294953 4.492236,2.078416 z M 68.325588,64.006683 c 0.702791,1.765244 -0.19191,3.843588 -1.957154,4.546377 -1.765245,0.70279 -3.806599,-0.099 -4.546377,-1.957154 -0.739778,-1.858151 0.19191,-3.843587 1.957154,-4.546377 1.765243,-0.702789 3.843587,0.19191 4.546377,1.957154 z M 45.870799,79.264135 c 0.132702,1.895361 -1.351642,3.603202 -3.247002,3.735903 -1.895361,0.132702 -3.596218,-1.251886 -3.735904,-3.247003 -0.139685,-1.995116 1.351643,-3.603201 3.247003,-3.735903 1.895361,-0.132701 3.603202,1.351643 3.735903,3.247003 z"
         style="fill:#f76b8a;stroke:none" />
    </g>
    <path
       d="m 198.72006,9.8890284 0.18417,-0.04308 0.40476,0.06337 0.61512,0.3807626 0.002,0.11152 -0.60021,0.403855 -0.40206,0.0787 -0.18568,-0.03606 -0.13752,0.452335 0.17433,0.07339 0.2902,0.289178 0.27384,0.669599 -0.0638,0.09147 -0.72296,-0.02607 -0.37153,-0.172642 -0.12902,-0.138324 -0.37713,0.285117 0.0979,0.161839 0.0648,0.404532 -0.17206,0.702676 -0.1054,0.03648 -0.56957,-0.446039 -0.19909,-0.358052 -0.0231,-0.187736 -0.47269,0.009 -0.0159,0.188476 -0.18535,0.365357 -0.55221,0.467356 -0.10671,-0.03245 -0.19862,-0.695632 0.0494,-0.406701 0.0917,-0.165443 -0.38769,-0.270583 -0.12367,0.143128 -0.3647,0.186631 -0.72146,0.05352 -0.0673,-0.08898 0.2482,-0.679518 0.27901,-0.299995 0.17141,-0.07996 -0.15461,-0.446783 -0.18417,0.04308 -0.40476,-0.06337 -0.61511,-0.380764 -0.002,-0.111519 0.6002,-0.403856 0.40206,-0.0787 0.18568,0.03606 0.13752,-0.452334 -0.17433,-0.07339 -0.2902,-0.289179 -0.27383,-0.669599 0.0638,-0.09147 0.72297,0.02607 0.37152,0.172643 0.12902,0.138324 0.37713,-0.285116 -0.0979,-0.161841 -0.0648,-0.404531 0.17206,-0.702676 0.1054,-0.03648 0.56957,0.446041 0.19909,0.358052 0.0231,0.187734 0.47269,-0.009 0.0159,-0.188476 0.18534,-0.365357 0.55221,-0.467356 0.10671,0.03245 0.19863,0.695632 -0.0494,0.406702 -0.0917,0.165442 0.38769,0.270583 0.12367,-0.143128 0.3647,-0.186631 0.72146,-0.05352 0.0673,0.08898 -0.2482,0.679517 -0.27901,0.299995 -0.17141,0.07996 z"
       style="fill:none;stroke:#f76b8a;stroke-width:1;stroke-opacity:1"
       id="path2731-3" />
    <path
       d="m 178.75767,25.163567 0.18851,0.01547 0.36582,0.184433 0.46873,0.551039 -0.0323,0.106761 -0.69513,0.200351 -0.40682,-0.04838 -0.16568,-0.09126 -0.2696,0.388375 0.14343,0.123311 0.18754,0.364234 0.0553,0.721312 -0.0888,0.0675 -0.68014,-0.246502 -0.30069,-0.278251 -0.0804,-0.171222 -0.44639,0.155737 0.0436,0.184064 -0.0624,0.404913 -0.37924,0.616064 -0.11151,0.0024 -0.40536,-0.599203 -0.0797,-0.401853 0.0356,-0.185774 -0.45268,-0.136379 -0.0729,0.17452 -0.28845,0.290921 -0.66892,0.275512 -0.0916,-0.06361 0.0243,-0.723025 0.17173,-0.37196 0.13801,-0.129354 -0.28604,-0.376429 -0.1616,0.09831 -0.40436,0.06581 -0.70311,-0.170287 -0.0368,-0.10533 0.44461,-0.570675 0.35756,-0.199987 0.18767,-0.02355 -0.0102,-0.472669 -0.1885,-0.01547 -0.36583,-0.184433 -0.46872,-0.551038 0.0323,-0.10676 0.69512,-0.200355 0.40683,0.04838 0.16567,0.09126 0.2696,-0.388374 -0.14343,-0.123311 -0.18754,-0.364235 -0.0553,-0.721309 0.0888,-0.0675 0.68015,0.246506 0.30068,0.278248 0.0804,0.171223 0.44639,-0.155737 -0.0436,-0.184065 0.0624,-0.404913 0.37924,-0.616064 0.11151,-0.0024 0.40536,0.599206 0.0797,0.401852 -0.0356,0.185773 0.45268,0.136379 0.0729,-0.17452 0.28844,-0.290924 0.66892,-0.275512 0.0916,0.06361 -0.0242,0.723028 -0.17173,0.371961 -0.13801,0.129353 0.28604,0.376429 0.1616,-0.09831 0.40436,-0.06581 0.70311,0.170287 0.0368,0.10533 -0.44461,0.570674 -0.35756,0.199987 -0.18767,0.02355 z"
       style="fill:none;stroke:#f76b8a;stroke-width:1;stroke-opacity:1"
       id="path2731-3-6" />
    <path
       d="m 198.54532,24.116542 0.18417,-0.04308 0.40476,0.06337 0.61512,0.380763 0.002,0.11152 -0.60021,0.403855 -0.40206,0.0787 -0.18568,-0.03606 -0.13752,0.452335 0.17433,0.07339 0.2902,0.289178 0.27384,0.669599 -0.0638,0.09147 -0.72296,-0.02607 -0.37153,-0.172642 -0.12902,-0.138324 -0.37713,0.285117 0.0979,0.161839 0.0648,0.404532 -0.17206,0.702676 -0.1054,0.03648 -0.56957,-0.446039 -0.19909,-0.358052 -0.0231,-0.187736 -0.47269,0.009 -0.0159,0.188476 -0.18535,0.365357 -0.55221,0.467356 -0.10671,-0.03245 -0.19862,-0.695632 0.0494,-0.406701 0.0917,-0.165443 -0.38769,-0.270583 -0.12367,0.143128 -0.3647,0.186631 -0.72146,0.05352 -0.0673,-0.08898 0.2482,-0.679518 0.27901,-0.299995 0.17141,-0.07996 -0.15461,-0.446783 -0.18417,0.04308 -0.40476,-0.06337 -0.61511,-0.380764 -0.002,-0.111519 0.6002,-0.403856 0.40206,-0.0787 0.18568,0.03606 0.13752,-0.452334 -0.17433,-0.07339 -0.2902,-0.289179 -0.27383,-0.669599 0.0638,-0.09147 0.72297,0.02607 0.37152,0.172643 0.12902,0.138324 0.37713,-0.285116 -0.0979,-0.161841 -0.0648,-0.404531 0.17206,-0.702676 0.1054,-0.03648 0.56957,0.446041 0.19909,0.358052 0.0231,0.187734 0.47269,-0.009 0.0159,-0.188476 0.18534,-0.365357 0.55221,-0.467356 0.10671,0.03245 0.19863,0.695632 -0.0494,0.406702 -0.0917,0.165442 0.38769,0.270583 0.12367,-0.143128 0.3647,-0.186631 0.72146,-0.05352 0.0673,0.08898 -0.2482,0.679517 -0.27901,0.299995 -0.17141,0.07996 z"
       style="fill:none;stroke:#f76b8a;stroke-width:1;stroke-opacity:1"
       id="path2731-3-7" />
  </g>
</svg>
